<?xml version="1.0" encoding="utf-8"?>
<!-- Generator: Adobe Illustrator 22.0.0, SVG Export Plug-In . SVG Version: 6.00 Build 0)  -->
<svg version="1.1" id="Layer_1" xmlns="http://www.w3.org/2000/svg" xmlns:xlink="http://www.w3.org/1999/xlink" x="0px" y="0px"
	 viewBox="0 0 512 512" style="enable-background:new 0 0 512 512;" xml:space="preserve">
<style type="text/css">
	.st0{clip-path:url(#SVGID_2_);}
	.st1{fill:#EA2839;}
	.st2{fill:#34B233;}
	.st3{fill:#FECB00;}
	.st4{fill:#FFFFFF;}
	.st5{opacity:0.5;}
	.st6{opacity:0.7;}
	.st7{enable-background:new    ;}
</style>
<g>
	<g>
		<g>
			<g>
				<defs>
					<path id="SVGID_1_" d="M453.9,488.3H58.1c-19,0-34.4-15.4-34.4-34.4V58.1c0-19,15.4-34.4,34.4-34.4h395.8
						c19,0,34.4,15.4,34.4,34.4v395.8C488.3,472.9,472.9,488.3,453.9,488.3z"/>
				</defs>
				<clipPath id="SVGID_2_">
					<use xlink:href="#SVGID_1_"  style="overflow:visible;"/>
				</clipPath>
				<g class="st0">
					<polygon class="st1" points="578.8,88.4 394.4,272.8 394.4,272.8 391.9,275.3 261.4,405.8 261.4,405.8 88.4,578.8 243.7,734 
						734,243.7 					"/>
					
						<rect x="-90.7" y="146.2" transform="matrix(0.7071 -0.7071 0.7071 0.7071 -106.0251 255.9622)" class="st2" width="693.4" height="219.5"/>
					
						<rect x="-245.9" y="-9" transform="matrix(0.7071 -0.7071 0.7071 0.7071 -41.7245 100.7637)" class="st3" width="693.4" height="219.5"/>
				</g>
			</g>
		</g>
		<g>
			<path class="st4" d="M99.9,262.3L99.9,262.3c-1-4.7-3.7-14.9-6.2-23.1h-10v31.3h6.2v-11.2c0-5.4-0.1-11.8-0.4-15.5h0.2
				c1.4,6.2,4.6,18.1,6.9,26.7h5.8c3-9.8,6.1-20.2,7.6-26.6h0.2c-0.1,3.5-0.2,9.5-0.2,14.9v11.7h6.5v-31.3h-9.7
				C104.1,247.3,100.7,258.2,99.9,262.3z"/>
			<path class="st4" d="M140.1,262.3L140.1,262.3c-1-4.7-3.7-14.9-6.2-23.1h-10.1v31.3h6.2v-11.2c0-5.4-0.1-11.8-0.4-15.5h0.2
				c1.4,6.2,4.6,18.1,6.9,26.7h5.8c3-9.8,6.1-20.2,7.6-26.6h0.2c-0.1,3.5-0.2,9.5-0.2,14.9v11.7h6.5v-31.3h-9.7
				C144.3,247.3,140.9,258.2,140.1,262.3z"/>
			<path class="st4" d="M170.8,259.8l3.3-3.2l9.6,13.9h8.1l-13-18.3l12.6-13h-8.1c-4,4.5-10.4,11.5-12.5,14v-14h-6.7v31.3h6.7
				L170.8,259.8L170.8,259.8z"/>
			<path class="st4" d="M379.4,247.1c-9.9-2.9-12.4-4.8-12.4-8.9c0-2.9,1.5-6.6,7.8-6.6c7.3,0,8.8,4.4,9.3,6.5h13.2
				c-0.9-6.7-4.9-13.8-16.5-15.5v-6.2H370v6.3c-8.9,1.5-15.7,7.1-15.7,16.7c0,9,4.4,14.7,20.2,19.4c8.6,2.5,11.4,5,11.4,9.7
				c0,4.2-2.6,7.5-9.4,7.5c-5.8,0-9.7-2.7-10.8-7.8h-12.8c1.1,9.1,7.1,15.2,17.7,16.7v7.6h10.9v-7.7c10.3-1.6,17.2-7.8,17.2-17.8
				C398.7,258,394.3,251.4,379.4,247.1z"/>
		</g>
	</g>
	<g class="st5">
		<path class="st4" d="M180.6,222.8c1-0.1,1.9-0.2,2.9-0.2c0.5,0,1.2,0.2,1.6,0.5c1.5,1.1,2.7,0.5,3.3-1.3c1-3.3,0.3-6.5-0.2-9.7
			c-0.1-0.3,0.1-1,0.2-1c0.8,0,1.9-0.3,2.5,0.1c2.4,1.3,2.4,1.4,3.8-0.9c0.4-0.6,0.8-1.2,1.4-1.6c1.7-1.1,1.8-3.3,1.3-4.9
			c-0.3-1-0.1-2.2-0.4-3.2c-0.7-2.8,0.9-4.5,2.5-6.3c1.2-1.3,2.2-2.7,1.5-4.8c-0.3-1,0.5-2.4,0.5-3.6c0.1-2,0.1-4-0.2-5.9
			c-0.4-2.2-0.1-3.1,1.6-3.6c0.4-0.1,0.8,0,1.2,0c0.9,0,1.9,0,2.8,0.2c0.9,0.2,1.8,0.5,2.8,0.7c1.2,0.3,2.3,1.1,3.4,1
			c1.8-0.1,2.4-1.8,2.6-3.3c0.3-2.3,1.3-4.2,2.5-6.1c0.7-1.2,1.3-2.5,2-3.9c1.9,0.5,2.5-0.8,3.1-2.6c0.5-1.7,1.7-3.3,1.5-5.2
			c0-0.4-0.1-0.9-0.3-1c-2-1.3-1.7-3.2-1.6-5.2c3.5-0.8,5.4-3.2,6.3-6.5c0.2-0.7,1.1-1.3,1.4-2c0.3-0.9,0.5-1.8,0.5-2.8
			c0-2.2-0.3-4.5-0.2-6.7c0.1-1.5,1.6-2,2.7-2.7c1.9-1.1,3.7-2.2,5.6-3.3c1.6-1,3.2-2.1,3.8-4.1c0.1-0.3,0.3-0.6,0.4-0.7
			c2.1-0.2,3.3-1.6,4.6-3.1c0.7-0.8,2.3-0.9,3.5-1.1c1.6-0.2,3.3-0.4,4.9-0.3c1,0.1,2,0.3,2.5,1.7c0.7,2.1,3.4,3.2,5.4,2.2
			c0.5-0.2,0.8-1.6,0.5-2.2c-0.4-1.1-1.3-2-2.1-2.8c-2-2.1-1.8-5.6,0.6-7.4c1.1-0.8,2.3-1.4,3.5-1.9c1.4-0.5,2.1-1.4,2.2-2.9
			c0.1-0.4,0.5-0.8,0.7-1.3c0.7-1.4,1.5-2.8,2.2-4.2c0.4-0.9,0.8-1.8,1.3-3.1c0.5,1.1,0.8,1.8,1.1,2.5c0.9,0,1.7,0,2.2,0
			c1.2,1.6,2.4,2.9,3.3,4.4c0.7,1.2,1,2.5,1.4,3.8c0.5,1.7,0.8,3.5,1.3,5.1c0.5,1.5,1.6,2.3,3.3,2.3c1.7,0,3.6-0.7,4.8,1.2
			c0.2,0.3,0.5,0.5,0.5,0.8c0,2.4-0.1,4.8,0.1,7.1c0.2,2.2,0.3,4.4,0,6.7c-0.3,2,0,4-1.2,6c-0.7,1.1-0.5,2.7-0.5,4.1
			c0,0.9-0.1,1.6-1.1,1.9c-1.6,0.5-1.9,2.1-1.9,3.3c0,2.4-1.4,3.4-3.3,4c-1.6,0.5-2.6,1.4-3,3c-0.1,0.5-0.6,0.8-0.9,1.2
			c-0.7,0.8-1.3,1.6-2,2.4c-0.2,0.3-0.5,0.6-0.8,0.7c-2.4,1.5-2.7,2.4-1.9,5c-4.9,3.2-4,3-3.8,6.9c0.7,0.1,1.3,0.1,2.2,0.2
			c0.4,1.6,0.5,3.3,1.1,4.8c0.6,1.6,0,2.4-1,3.4c-1.4,1.3-1.1,3.5,0.5,4.2s4.7-0.4,5.6-2c0.3-0.5,0.5-1,0.7-1.5
			c0.2-0.3,0.4-0.7,0.6-0.7c1.8,0,3.5-0.1,5.3,0c1.2,0.1,2.3,0.5,3.2,0.7c0.8,1.2,1.5,2.2,2.2,3.3c0.2,0.3,0.2,0.8,0.4,1.2
			c0.4,0.8,0.7,1.8,1.3,2.3c1.1,0.7,1.1,1.5,0.9,2.5c-0.4,1.5-0.3,2.9,0.4,4.4c0.6,1.2,1.5,1.6,2.6,1.8c2.2,0.3,4.4,0.6,6.8,0.8
			c-0.5,2.5-0.3,4.8-2.1,6.5c-1.1,1.1-1.5,2.4-1.6,3.9s-0.2,3-0.2,4.6c0,0.3,0.4,0.7,0.6,1c2.3,2,5.1,2.7,8.1,2.7c0.8,0,1.6,0,2.6,0
			c0.5,2,1.1,3.9,1.6,5.9c0.7,0,1.3,0.1,2,0.1c0.3,1.3,0.6,2.7,1,4.3c2.5,0,5.1,0.2,7.6-0.1c1-0.1,2.3-1,2.9-1.9
			c1.1-1.7,2.6-1.3,4-1.3c0.5,0,0.9,0.1,1.4,0.1c0.1,0.2,0.1,0.3,0.2,0.5c-0.8,0.5-1.6,1.1-2.5,1.4c-3.8,0.9-5.1,4.2-6.5,7.2
			c-0.7,1.6-1.6,2.9-3.2,3.6c-4,1.7-5.1,3.9-5.5,7.5c-0.5-0.1-0.9-0.2-1.3-0.4c-1.7-0.9-2.9-0.7-3.8,0.9c-0.5,0.9-0.9,0.8-1.7,0.6
			c-1.3-0.4-2.7-0.7-4.3-1.1c0,2.1,0.2,3.8-1.4,4.9c-0.4,0.3-1,0.6-1.5,0.6c-3.4,0.1-4.2,0.7-5.4,4c-0.1,0.3-0.2,0.5-0.3,0.7
			c-1,2.2-1,2.2-3.4,1.3c-0.3-0.1-0.8-0.2-1-0.1c-1.9,1-3.7,0.6-5.7,0.2c-1.1-0.3-2.4,0-3.6,0.1c-1.1,0.1-2.3,0.2-3.4,0.2
			c-0.2,0.6-0.3,1.3-0.6,1.8c-2.6,4-3.6,8.3-2.5,13c0.3,1.1-0.1,1.7-0.6,2.5c-1.1,1.6-2.1,3.3-4.8,2.4c0,2,0,3.8,0,5.5
			c0,0.2,0.1,0.5,0.3,0.7c1.3,1,2.6,2.1,4,3c1,0.6,0.7,1.3,0.3,1.9c-1.2,2.4-1,3.3,0.7,5.3c1,1.1,1.7,2.4,2.4,3.7
			c0.7,1.2,1.5,2.3,2.9,2.6c1.4,0.3,1.8,1.1,1.6,2.3c-0.3,1.6,0.2,2.5,2,2.9c3.8,0.9,4.6,3.4,4.9,7.1c0.1,0.7,0,1.3,0,2.1
			c0.6,0.1,1.1,0.2,1.6,0.4c0,0.7,0.1,1.3,0.1,2.1c0.3,0,0.6,0.1,0.8,0.1c1.4,0.1,1.8,0.6,1,1.7c-1.6,2.1-2.5,4.5-3,7.1
			c-0.2,1.1-0.6,2.2-0.5,3.3c0.2,2-0.9,3-2.5,3.7c-4,1.8-4.8,6.3-4.4,9.5c0.2,1.8,1.2,3.5,1.9,5.4c0.4,0,0.9,0.1,1.3,0.1
			c1.5-0.2,2.3,0.2,2.8,1.8c0.3,1,1.5,1.7,2.2,2.6c1.2,1.3,2.3,2.7,3.4,4c0.3,0.3,0.5,0.9,0.9,1c3.2,0.9,1.9,3.4,2,5.4
			c0,0.2,0.1,0.3,0.1,0.5c2.3,0.9,3.1,2.6,2,5.5c-1.4,3.7,0,6.8,1.6,9.9c1.7,3.3,3.9,6.4,3.2,10.4c-0.3,1.5-1.3,3-1.3,4.4
			c0,3.2-3,5.2-3.1,8.3c0,1-0.4,2.1-0.8,3.1c-0.3,0.8-0.3,2.1-1.8,1.9c-0.1,0-0.3,0.3-0.3,0.5c-1.3,3.1-3.7,5.7-4.1,9.3
			c-0.2,1.8-1.7,3.4-2.6,5.1c-0.2,0.3-0.3,0.7-0.4,1c-0.3,0-0.7,0-1,0c-0.2-1.4-0.6-2.9-0.5-4.3c0.2-4.3,1.8-8.1,4.2-11.6
			c0.8-1.1,0.9-2.2,0.6-3.5c-0.4-1.5-1-3.3-0.7-4.8c0.4-2,0.1-3.2-1.8-4.1c-0.8-0.4-1.5-1.2-0.4-2.4c0.7-0.7,0.7-2.1,0.8-3.2
			c0.1-2.6,0-5.3-0.1-7.9c0-1.8,0.2-3.8-0.3-5.5c-0.7-2.7-2-5.3-2.9-8c-0.6-2-1.7-3.5-3.7-4.1c1.4-3.4,1.3-3.5-1.5-6.2
			c-0.7-0.6-0.8-1.8-1.1-2.7c-0.2-0.5,0.1-1.3-0.1-1.6c-1.9-2.2-1.4-4.8-1.6-7.4c0-0.5,0-1.3-0.3-1.5c-3.3-2-3.1-5.3-3.2-8.4
			c-0.2-2.7-0.1-5.5,0-8.3c0-1.2,0-2.3-1-3.3c-0.5-0.5-0.7-1.4-0.7-2.1c0-1.9,0.2-3.8,0.3-5.7c0-2.4-0.4-2.8-2.7-3.4
			c-3-0.7-3.9-1.8-3.9-5c0-1.7,0-3.4,0-5.1c-3-0.8-3.1-0.7-5-3.8c-0.9-1.4-1.9-1.7-3.6-1.2c0.2,1.4,0.3,2.8,0.5,4.2
			c0.2,1.7,0.7,3.3,0.6,5c-0.1,3-2.2,5.8-5.3,6.2c-1.7,0.2-3.4,0.3-4.7,0.4c-0.7,1.1-1,2.2-1.8,2.8c-1.1,0.8-2.4,1.3-3.6,1.7
			c-2.3,0.7-3.7,1.8-4.3,4.4c-0.5,2.5-3.3,3.3-5.3,4.5l-0.2-0.1c-1-2.2,2.1-4.1,0.1-6.6c-0.8,0.7-1.5,1.3-2.5,2.1
			c-0.7-0.8-1.5-1.7-2.4-2.7c-0.4,1.7-0.6,3.2-1,4.6c-0.1,0.4-1,0.7-1.5,1c-0.2-0.7-0.6-1.4-0.5-2c0.3-1.5,0.9-2.9,1.4-4.4
			c-1.1-0.3-2.1-0.5-3.1-0.7c0-0.7,0.2-1.4,0-1.9c-0.4-0.7-1.1-1.6-1.8-1.9c-1.2-0.4-1,0.9-1.3,1.6c-0.7,1.6-1.3,3.2-2.3,4.6
			c-0.4,0.6-1.6,1.7-2.4,0.5c-0.4-0.7-0.5-2.4,0-2.7c1.2-0.9,1.3-2,1.3-3.3c0-1.5-0.1-3,0-4.5c0.1-0.7,0.5-1.4,0.8-2.2
			c0.5-1.2,1.3-2.3,1.4-3.5c0.2-1.7,0.4-3.4,1.3-4.9c0.5-0.8,0.7-2.2,0.4-3c-1.7-4-2.3-8.1-1.9-12.4c0.1-1.5-0.5-2.8-1.7-3.5
			c-1.1-0.6-1-1.5-1.3-2.5c-0.4-1.8-0.9-3.9-2.1-5c-1.9-1.8-2-1.5-1.6-4.4c0.6-3.6,1.6-4.5-2.9-7.3c-1.2-0.7-2-1.5-2.1-3
			c-0.1-0.8-1.1-1.5-1.7-2.2c-0.3-0.4-0.9-0.6-1.2-1.1c-1.5-2.6-3.8-3.8-6.7-3.3c-0.6,0.1-1.2,0-1.9,0c0.1-1.5,0.3-2.8,0.3-4.1
			s-1.9-2.3-2.9-1.7c-0.2,0.1-0.8-0.1-1-0.3c-0.3-0.4-0.5-0.8-0.6-1.3c-0.3-1.4-1-1.6-2.4-1.3c-1,0.2-2.4-0.3-3.2-1
			c-2.4-1.8-3-4.7-4.4-7.2c-0.2-0.4-0.9-0.6-1.4-0.9C180.6,226.5,180.6,224.6,180.6,222.8z"/>
	</g>
	<g class="st6">
		<g>
			<g>
				<path d="M379.2,175.1c-7.4,0-14.6,0.9-21.5,2.7c-23.8-27.3-58.8-44.6-97.8-44.6c-5.5,0-10.9,0.3-16.2,1l-16.1-33.1l-19.9,43
					l-13.3,28.7l3.3,0.7c16-11.1,35.1-18.1,55.7-19.3c2.1-0.1,4.3-0.2,6.4-0.2c30,0,57.3,12.2,77,32c-27.1,15-45.5,43.9-45.5,77
					s18.4,62,45.5,77c6.5,3.6,13.5,6.4,20.8,8.2c6.9,1.7,14.1,2.7,21.5,2.7c48.4,0,87.8-39.4,87.8-87.8
					C467.1,214.6,427.7,175.1,379.2,175.1z"/>
				<path d="M266.4,371.7c-2.1,0.1-4.3,0.2-6.4,0.2c-30,0-57.3-12.2-77-32c27.1-15,45.5-43.9,45.5-77s-18.4-62-45.5-77
					c-6.5-3.6-13.5-6.4-20.8-8.2c-6.9-1.7-14.1-2.7-21.5-2.7c-48.4,0-87.8,39.4-87.8,87.8s39.4,87.8,87.8,87.8
					c7.4,0,14.6-0.9,21.5-2.7c23.8,27.3,58.8,44.6,97.8,44.6c5.5,0,10.9-0.3,16.2-1l16.1,33.1l19.9-43l13.3-28.7l-3.3-0.7
					C306.1,363.5,287,370.5,266.4,371.7z"/>
			</g>
		</g>
	</g>
	<g>
		<path class="st4" d="M375.3,168.2c-7.4,0-14.6,0.9-21.5,2.7C330,143.6,295,126.3,256,126.3c-5.5,0-10.9,0.3-16.2,1l-16.1-33.1
			l-19.9,43L190.6,166l3.3,0.7c16-11.1,35.1-18.1,55.7-19.3c2.1-0.1,4.3-0.2,6.4-0.2c30,0,57.3,12.2,77,32
			c-27.1,15-45.5,43.9-45.5,77s18.4,62,45.5,77c6.5,3.6,13.5,6.4,20.8,8.2c6.9,1.7,14.1,2.7,21.5,2.7c48.4,0,87.8-39.4,87.8-87.8
			C463.2,207.6,423.8,168.2,375.3,168.2z"/>
		<path class="st4" d="M262.4,364.8c-2.1,0.1-4.3,0.2-6.4,0.2c-30,0-57.3-12.2-77-32c27.1-15,45.5-43.9,45.5-77s-18.4-62-45.5-77
			c-6.5-3.6-13.5-6.4-20.8-8.2c-6.9-1.7-14.1-2.7-21.5-2.7c-48.4,0-87.8,39.4-87.8,87.8s39.4,87.8,87.8,87.8
			c7.4,0,14.6-0.9,21.5-2.7c23.8,27.3,58.8,44.6,97.8,44.6c5.5,0,10.9-0.3,16.2-1l16.1,33.1l19.9-43l13.3-28.7l-3.3-0.7
			C302.2,356.6,283.1,363.6,262.4,364.8z"/>
	</g>
	<g class="st7">
		<path class="st1" d="M104.1,259.7c-0.2-5.1-0.4-11.2-0.4-17.3h-0.2c-1.3,5.4-3.1,11.4-4.7,16.3l-5.1,16.4h-7.4l-4.5-16.3
			c-1.4-4.9-2.8-10.9-3.8-16.4h-0.1c-0.2,5.7-0.4,12.2-0.7,17.4l-0.7,16h-8.8l2.7-42h12.7l4.1,14c1.3,4.9,2.6,10.1,3.6,15h0.2
			c1.2-4.9,2.6-10.4,4-15.1l4.5-14h12.4l2.3,42h-9.3L104.1,259.7z"/>
		<path class="st1" d="M156.8,259.7c-0.2-5.1-0.4-11.2-0.4-17.3h-0.2c-1.3,5.4-3.1,11.4-4.7,16.3l-5.1,16.4H139l-4.5-16.3
			c-1.4-4.9-2.8-10.9-3.8-16.4h-0.1c-0.2,5.7-0.4,12.2-0.7,17.4l-0.7,16h-8.8l2.7-42h12.7l4.1,14c1.3,4.9,2.6,10.1,3.6,15h0.2
			c1.2-4.9,2.6-10.4,4-15.1l4.5-14h12.4l2.3,42h-9.3L156.8,259.7z"/>
		<path class="st1" d="M174,233.7h9.4v18.6h0.2c0.9-1.6,1.9-3.1,2.9-4.6l9.5-14h11.7l-13.9,17.9l14.7,24.1h-11.1l-10.3-18.2
			l-3.6,4.4v13.7H174V233.7z"/>
	</g>
	<g class="st7">
		<path class="st1" d="M369.8,296.7v-10c-7.1-0.3-14-2.2-18-4.5l3.2-12.4c4.4,2.4,10.7,4.7,17.5,4.7c6,0,10.1-2.3,10.1-6.6
			c0-4-3.4-6.6-11.2-9.2c-11.3-3.8-19-9.1-19-19.3c0-9.3,6.6-16.6,17.9-18.8v-10h10.4v9.3c7.1,0.3,11.8,1.8,15.3,3.5l-3.1,11.9
			c-2.7-1.2-7.6-3.6-15.2-3.6c-6.9,0-9.1,3-9.1,5.9c0,3.5,3.7,5.7,12.7,9.1c12.6,4.4,17.7,10.3,17.7,19.8c0,9.4-6.7,17.4-18.8,19.6
			v10.8H369.8z"/>
	</g>
</g>
</svg>
